<svg aria-roledescription="er" role="graphics-document document" viewBox="0 0 608.20166015625 646.5" style="max-width: 608.20166015625px;" xmlns="http://www.w3.org/2000/svg" width="100%" id="mermaidSvgChart"><style>#mermaidSvgChart{font-family:"trebuchet ms",verdana,arial,sans-serif;font-size:16px;fill:#ccc;}#mermaidSvgChart .error-icon{fill:#a44141;}#mermaidSvgChart .error-text{fill:#ddd;stroke:#ddd;}#mermaidSvgChart .edge-thickness-normal{stroke-width:2px;}#mermaidSvgChart .edge-thickness-thick{stroke-width:3.5px;}#mermaidSvgChart .edge-pattern-solid{stroke-dasharray:0;}#mermaidSvgChart .edge-pattern-dashed{stroke-dasharray:3;}#mermaidSvgChart .edge-pattern-dotted{stroke-dasharray:2;}#mermaidSvgChart .marker{fill:lightgrey;stroke:lightgrey;}#mermaidSvgChart .marker.cross{stroke:lightgrey;}#mermaidSvgChart svg{font-family:"trebuchet ms",verdana,arial,sans-serif;font-size:16px;}#mermaidSvgChart .entityBox{fill:#1f2020;stroke:#81B1DB;}#mermaidSvgChart .attributeBoxOdd{fill:hsl(0, 0%, 32%);stroke:#81B1DB;}#mermaidSvgChart .attributeBoxEven{fill:hsl(0, 0%, 22%);stroke:#81B1DB;}#mermaidSvgChart .relationshipLabelBox{fill:hsl(20, 1.5873015873%, 12.3529411765%);opacity:0.7;background-color:hsl(20, 1.5873015873%, 12.3529411765%);}#mermaidSvgChart .relationshipLabelBox rect{opacity:0.5;}#mermaidSvgChart .relationshipLine{stroke:lightgrey;}#mermaidSvgChart .entityTitleText{text-anchor:middle;font-size:18px;fill:#ccc;}#mermaidSvgChart :root{--mermaid-font-family:"trebuchet ms",verdana,arial,sans-serif;}</style><g></g><defs><marker orient="auto" markerHeight="18" markerWidth="18" refY="9" refX="0" id="ONLY_ONE_START"><path d="M9,0 L9,18 M15,0 L15,18" fill="none" stroke="gray"></path></marker></defs><defs><marker orient="auto" markerHeight="18" markerWidth="18" refY="9" refX="18" id="ONLY_ONE_END"><path d="M3,0 L3,18 M9,0 L9,18" fill="none" stroke="gray"></path></marker></defs><defs><marker orient="auto" markerHeight="18" markerWidth="30" refY="9" refX="0" id="ZERO_OR_ONE_START"><circle r="6" cy="9" cx="21" fill="white" stroke="gray"></circle><path d="M9,0 L9,18" fill="none" stroke="gray"></path></marker></defs><defs><marker orient="auto" markerHeight="18" markerWidth="30" refY="9" refX="30" id="ZERO_OR_ONE_END"><circle r="6" cy="9" cx="9" fill="white" stroke="gray"></circle><path d="M21,0 L21,18" fill="none" stroke="gray"></path></marker></defs><defs><marker orient="auto" markerHeight="36" markerWidth="45" refY="18" refX="18" id="ONE_OR_MORE_START"><path d="M0,18 Q 18,0 36,18 Q 18,36 0,18 M42,9 L42,27" fill="none" stroke="gray"></path></marker></defs><defs><marker orient="auto" markerHeight="36" markerWidth="45" refY="18" refX="27" id="ONE_OR_MORE_END"><path d="M3,9 L3,27 M9,18 Q27,0 45,18 Q27,36 9,18" fill="none" stroke="gray"></path></marker></defs><defs><marker orient="auto" markerHeight="36" markerWidth="57" refY="18" refX="18" id="ZERO_OR_MORE_START"><circle r="6" cy="18" cx="48" fill="white" stroke="gray"></circle><path d="M0,18 Q18,0 36,18 Q18,36 0,18" fill="none" stroke="gray"></path></marker></defs><defs><marker orient="auto" markerHeight="36" markerWidth="57" refY="18" refX="39" id="ZERO_OR_MORE_END"><circle r="6" cy="18" cx="9" fill="white" stroke="gray"></circle><path d="M21,18 Q39,0 57,18 Q39,36 21,18" fill="none" stroke="gray"></path></marker></defs><path style="stroke: gray; fill: none;" marker-start="url(#ONLY_ONE_START)" marker-end="url(#ONE_OR_MORE_END)" d="M304.364,398L295.672,406.333C286.979,414.667,269.594,431.333,260.901,448C252.208,464.667,252.208,481.333,252.208,489.667L252.208,498" class="er relationshipLine"></path><path style="stroke: gray; fill: none;" marker-start="url(#ONLY_ONE_START)" marker-end="url(#ONE_OR_MORE_END)" d="M460.31,398L469.002,406.333C477.695,414.667,495.08,431.333,503.773,449.75C512.466,468.167,512.466,488.333,512.466,498.417L512.466,508.5" class="er relationshipLine"></path><path style="stroke: gray; fill: none;" marker-start="url(#ONLY_ONE_START)" marker-end="url(#ONE_OR_MORE_END)" d="M320.987,148.5L331.212,156.833C341.437,165.167,361.887,181.833,372.112,198.5C382.337,215.167,382.337,231.833,382.337,240.167L382.337,248.5" class="er relationshipLine"></path><path style="stroke: gray; fill: none;" marker-start="url(#ONLY_ONE_START)" marker-end="url(#ONE_OR_MORE_END)" d="M163.317,148.5L153.092,156.833C142.867,165.167,122.417,181.833,112.192,198.5C101.966,215.167,101.966,231.833,101.966,240.167L101.966,248.5" class="er relationshipLine"></path><g transform="translate(167.68720245361328,498 )" id="entity-dbotblSuppliers-c7d1fbe8-dc2f-5221-b5f4-d6de70cc9c05"><rect height="128.5" width="169.0423812866211" y="0" x="0" class="er entityBox"></rect><text style="dominant-baseline: middle; text-anchor: middle; font-size: 12px;" transform="translate(84.52119064331055,11.75)" y="0" x="0" id="text-entity-dbotblSuppliers-c7d1fbe8-dc2f-5221-b5f4-d6de70cc9c05" class="er entityLabel">dbo.tblSuppliers</text><rect height="21" width="67.796875" y="23.5" x="0" class="er attributeBoxOdd"></rect><text style="dominant-baseline: middle; font-size: 10.2px;" transform="translate(5,34)" y="0" x="0" id="text-entity-dbotblSuppliers-c7d1fbe8-dc2f-5221-b5f4-d6de70cc9c05-attr-1-type" class="er entityLabel">int</text><rect height="21" width="77.4453125" y="23.5" x="67.796875" class="er attributeBoxOdd"></rect><text style="dominant-baseline: middle; font-size: 10.2px;" transform="translate(72.796875,34)" y="0" x="0" id="text-entity-dbotblSuppliers-c7d1fbe8-dc2f-5221-b5f4-d6de70cc9c05-attr-1-name" class="er entityLabel">SupplierID</text><rect height="21" width="23.800193786621094" y="23.5" x="145.2421875" class="er attributeBoxOdd"></rect><text style="dominant-baseline: middle; font-size: 10.2px;" transform="translate(150.2421875,34)" y="0" x="0" id="text-entity-dbotblSuppliers-c7d1fbe8-dc2f-5221-b5f4-d6de70cc9c05-attr-1-comment" class="er entityLabel">PK</text><rect height="21" width="67.796875" y="44.5" x="0" class="er attributeBoxEven"></rect><text style="dominant-baseline: middle; font-size: 10.2px;" transform="translate(5,55)" y="0" x="0" id="text-entity-dbotblSuppliers-c7d1fbe8-dc2f-5221-b5f4-d6de70cc9c05-attr-2-type" class="er entityLabel">varchar(100)</text><rect height="21" width="77.4453125" y="44.5" x="67.796875" class="er attributeBoxEven"></rect><text style="dominant-baseline: middle; font-size: 10.2px;" transform="translate(72.796875,55)" y="0" x="0" id="text-entity-dbotblSuppliers-c7d1fbe8-dc2f-5221-b5f4-d6de70cc9c05-attr-2-name" class="er entityLabel">SupplierName</text><rect height="21" width="23.800193786621094" y="44.5" x="145.2421875" class="er attributeBoxEven"></rect><text style="dominant-baseline: middle; font-size: 10.2px;" transform="translate(150.2421875,55)" y="0" x="0" id="text-entity-dbotblSuppliers-c7d1fbe8-dc2f-5221-b5f4-d6de70cc9c05-attr-2-comment" class="er entityLabel"></text><rect height="21" width="67.796875" y="65.5" x="0" class="er attributeBoxOdd"></rect><text style="dominant-baseline: middle; font-size: 10.2px;" transform="translate(5,76)" y="0" x="0" id="text-entity-dbotblSuppliers-c7d1fbe8-dc2f-5221-b5f4-d6de70cc9c05-attr-3-type" class="er entityLabel">varchar(100)</text><rect height="21" width="77.4453125" y="65.5" x="67.796875" class="er attributeBoxOdd"></rect><text style="dominant-baseline: middle; font-size: 10.2px;" transform="translate(72.796875,76)" y="0" x="0" id="text-entity-dbotblSuppliers-c7d1fbe8-dc2f-5221-b5f4-d6de70cc9c05-attr-3-name" class="er entityLabel">ContactPerson</text><rect height="21" width="23.800193786621094" y="65.5" x="145.2421875" class="er attributeBoxOdd"></rect><text style="dominant-baseline: middle; font-size: 10.2px;" transform="translate(150.2421875,76)" y="0" x="0" id="text-entity-dbotblSuppliers-c7d1fbe8-dc2f-5221-b5f4-d6de70cc9c05-attr-3-comment" class="er entityLabel"></text><rect height="21" width="67.796875" y="86.5" x="0" class="er attributeBoxEven"></rect><text style="dominant-baseline: middle; font-size: 10.2px;" transform="translate(5,97)" y="0" x="0" id="text-entity-dbotblSuppliers-c7d1fbe8-dc2f-5221-b5f4-d6de70cc9c05-attr-4-type" class="er entityLabel">varchar(100)</text><rect height="21" width="77.4453125" y="86.5" x="67.796875" class="er attributeBoxEven"></rect><text style="dominant-baseline: middle; font-size: 10.2px;" transform="translate(72.796875,97)" y="0" x="0" id="text-entity-dbotblSuppliers-c7d1fbe8-dc2f-5221-b5f4-d6de70cc9c05-attr-4-name" class="er entityLabel">Email</text><rect height="21" width="23.800193786621094" y="86.5" x="145.2421875" class="er attributeBoxEven"></rect><text style="dominant-baseline: middle; font-size: 10.2px;" transform="translate(150.2421875,97)" y="0" x="0" id="text-entity-dbotblSuppliers-c7d1fbe8-dc2f-5221-b5f4-d6de70cc9c05-attr-4-comment" class="er entityLabel"></text><rect height="21" width="67.796875" y="107.5" x="0" class="er attributeBoxOdd"></rect><text style="dominant-baseline: middle; font-size: 10.2px;" transform="translate(5,118)" y="0" x="0" id="text-entity-dbotblSuppliers-c7d1fbe8-dc2f-5221-b5f4-d6de70cc9c05-attr-5-type" class="er entityLabel">varchar(25)</text><rect height="21" width="77.4453125" y="107.5" x="67.796875" class="er attributeBoxOdd"></rect><text style="dominant-baseline: middle; font-size: 10.2px;" transform="translate(72.796875,118)" y="0" x="0" id="text-entity-dbotblSuppliers-c7d1fbe8-dc2f-5221-b5f4-d6de70cc9c05-attr-5-name" class="er entityLabel">Phone</text><rect height="21" width="23.800193786621094" y="107.5" x="145.2421875" class="er attributeBoxOdd"></rect><text style="dominant-baseline: middle; font-size: 10.2px;" transform="translate(150.2421875,118)" y="0" x="0" id="text-entity-dbotblSuppliers-c7d1fbe8-dc2f-5221-b5f4-d6de70cc9c05-attr-5-comment" class="er entityLabel"></text></g><g transform="translate(436.72957611083984,508.5 )" id="entity-dbotblEmployees-53c3ff69-8872-5622-a238-891363e9f4c8"><rect height="107.5" width="151.4720687866211" y="0" x="0" class="er entityBox"></rect><text style="dominant-baseline: middle; text-anchor: middle; font-size: 12px;" transform="translate(75.73603439331055,11.75)" y="0" x="0" id="text-entity-dbotblEmployees-53c3ff69-8872-5622-a238-891363e9f4c8" class="er entityLabel">dbo.tblEmployees</text><rect height="21" width="62.1328125" y="23.5" x="0" class="er attributeBoxOdd"></rect><text style="dominant-baseline: middle; font-size: 10.2px;" transform="translate(5,34)" y="0" x="0" id="text-entity-dbotblEmployees-53c3ff69-8872-5622-a238-891363e9f4c8-attr-1-type" class="er entityLabel">int</text><rect height="21" width="65.5390625" y="23.5" x="62.1328125" class="er attributeBoxOdd"></rect><text style="dominant-baseline: middle; font-size: 10.2px;" transform="translate(67.1328125,34)" y="0" x="0" id="text-entity-dbotblEmployees-53c3ff69-8872-5622-a238-891363e9f4c8-attr-1-name" class="er entityLabel">EmployeeID</text><rect height="21" width="23.800193786621094" y="23.5" x="127.671875" class="er attributeBoxOdd"></rect><text style="dominant-baseline: middle; font-size: 10.2px;" transform="translate(132.671875,34)" y="0" x="0" id="text-entity-dbotblEmployees-53c3ff69-8872-5622-a238-891363e9f4c8-attr-1-comment" class="er entityLabel">PK</text><rect height="21" width="62.1328125" y="44.5" x="0" class="er attributeBoxEven"></rect><text style="dominant-baseline: middle; font-size: 10.2px;" transform="translate(5,55)" y="0" x="0" id="text-entity-dbotblEmployees-53c3ff69-8872-5622-a238-891363e9f4c8-attr-2-type" class="er entityLabel">varchar(50)</text><rect height="21" width="65.5390625" y="44.5" x="62.1328125" class="er attributeBoxEven"></rect><text style="dominant-baseline: middle; font-size: 10.2px;" transform="translate(67.1328125,55)" y="0" x="0" id="text-entity-dbotblEmployees-53c3ff69-8872-5622-a238-891363e9f4c8-attr-2-name" class="er entityLabel">FirstName</text><rect height="21" width="23.800193786621094" y="44.5" x="127.671875" class="er attributeBoxEven"></rect><text style="dominant-baseline: middle; font-size: 10.2px;" transform="translate(132.671875,55)" y="0" x="0" id="text-entity-dbotblEmployees-53c3ff69-8872-5622-a238-891363e9f4c8-attr-2-comment" class="er entityLabel"></text><rect height="21" width="62.1328125" y="65.5" x="0" class="er attributeBoxOdd"></rect><text style="dominant-baseline: middle; font-size: 10.2px;" transform="translate(5,76)" y="0" x="0" id="text-entity-dbotblEmployees-53c3ff69-8872-5622-a238-891363e9f4c8-attr-3-type" class="er entityLabel">varchar(50)</text><rect height="21" width="65.5390625" y="65.5" x="62.1328125" class="er attributeBoxOdd"></rect><text style="dominant-baseline: middle; font-size: 10.2px;" transform="translate(67.1328125,76)" y="0" x="0" id="text-entity-dbotblEmployees-53c3ff69-8872-5622-a238-891363e9f4c8-attr-3-name" class="er entityLabel">LastName</text><rect height="21" width="23.800193786621094" y="65.5" x="127.671875" class="er attributeBoxOdd"></rect><text style="dominant-baseline: middle; font-size: 10.2px;" transform="translate(132.671875,76)" y="0" x="0" id="text-entity-dbotblEmployees-53c3ff69-8872-5622-a238-891363e9f4c8-attr-3-comment" class="er entityLabel"></text><rect height="21" width="62.1328125" y="86.5" x="0" class="er attributeBoxEven"></rect><text style="dominant-baseline: middle; font-size: 10.2px;" transform="translate(5,97)" y="0" x="0" id="text-entity-dbotblEmployees-53c3ff69-8872-5622-a238-891363e9f4c8-attr-4-type" class="er entityLabel">varchar(50)</text><rect height="21" width="65.5390625" y="86.5" x="62.1328125" class="er attributeBoxEven"></rect><text style="dominant-baseline: middle; font-size: 10.2px;" transform="translate(67.1328125,97)" y="0" x="0" id="text-entity-dbotblEmployees-53c3ff69-8872-5622-a238-891363e9f4c8-attr-4-name" class="er entityLabel">Role</text><rect height="21" width="23.800193786621094" y="86.5" x="127.671875" class="er attributeBoxEven"></rect><text style="dominant-baseline: middle; font-size: 10.2px;" transform="translate(132.671875,97)" y="0" x="0" id="text-entity-dbotblEmployees-53c3ff69-8872-5622-a238-891363e9f4c8-attr-4-comment" class="er entityLabel"></text></g><g transform="translate(20,248.5 )" id="entity-dbotblProducts-e8b22c94-a034-5c33-93e9-00b5e789cfba"><rect height="149.5" width="163.9330062866211" y="0" x="0" class="er entityBox"></rect><text style="dominant-baseline: middle; text-anchor: middle; font-size: 12px;" transform="translate(81.96650314331055,11.75)" y="0" x="0" id="text-entity-dbotblProducts-e8b22c94-a034-5c33-93e9-00b5e789cfba" class="er entityLabel">dbo.tblProducts</text><rect height="21" width="67.796875" y="23.5" x="0" class="er attributeBoxOdd"></rect><text style="dominant-baseline: middle; font-size: 10.2px;" transform="translate(5,34)" y="0" x="0" id="text-entity-dbotblProducts-e8b22c94-a034-5c33-93e9-00b5e789cfba-attr-1-type" class="er entityLabel">int</text><rect height="21" width="72.3359375" y="23.5" x="67.796875" class="er attributeBoxOdd"></rect><text style="dominant-baseline: middle; font-size: 10.2px;" transform="translate(72.796875,34)" y="0" x="0" id="text-entity-dbotblProducts-e8b22c94-a034-5c33-93e9-00b5e789cfba-attr-1-name" class="er entityLabel">ProductID</text><rect height="21" width="23.800193786621094" y="23.5" x="140.1328125" class="er attributeBoxOdd"></rect><text style="dominant-baseline: middle; font-size: 10.2px;" transform="translate(145.1328125,34)" y="0" x="0" id="text-entity-dbotblProducts-e8b22c94-a034-5c33-93e9-00b5e789cfba-attr-1-comment" class="er entityLabel">PK</text><rect height="21" width="67.796875" y="44.5" x="0" class="er attributeBoxEven"></rect><text style="dominant-baseline: middle; font-size: 10.2px;" transform="translate(5,55)" y="0" x="0" id="text-entity-dbotblProducts-e8b22c94-a034-5c33-93e9-00b5e789cfba-attr-2-type" class="er entityLabel">varchar(100)</text><rect height="21" width="72.3359375" y="44.5" x="67.796875" class="er attributeBoxEven"></rect><text style="dominant-baseline: middle; font-size: 10.2px;" transform="translate(72.796875,55)" y="0" x="0" id="text-entity-dbotblProducts-e8b22c94-a034-5c33-93e9-00b5e789cfba-attr-2-name" class="er entityLabel">ProductName</text><rect height="21" width="23.800193786621094" y="44.5" x="140.1328125" class="er attributeBoxEven"></rect><text style="dominant-baseline: middle; font-size: 10.2px;" transform="translate(145.1328125,55)" y="0" x="0" id="text-entity-dbotblProducts-e8b22c94-a034-5c33-93e9-00b5e789cfba-attr-2-comment" class="er entityLabel"></text><rect height="21" width="67.796875" y="65.5" x="0" class="er attributeBoxOdd"></rect><text style="dominant-baseline: middle; font-size: 10.2px;" transform="translate(5,76)" y="0" x="0" id="text-entity-dbotblProducts-e8b22c94-a034-5c33-93e9-00b5e789cfba-attr-3-type" class="er entityLabel">varchar(-1)</text><rect height="21" width="72.3359375" y="65.5" x="67.796875" class="er attributeBoxOdd"></rect><text style="dominant-baseline: middle; font-size: 10.2px;" transform="translate(72.796875,76)" y="0" x="0" id="text-entity-dbotblProducts-e8b22c94-a034-5c33-93e9-00b5e789cfba-attr-3-name" class="er entityLabel">Description</text><rect height="21" width="23.800193786621094" y="65.5" x="140.1328125" class="er attributeBoxOdd"></rect><text style="dominant-baseline: middle; font-size: 10.2px;" transform="translate(145.1328125,76)" y="0" x="0" id="text-entity-dbotblProducts-e8b22c94-a034-5c33-93e9-00b5e789cfba-attr-3-comment" class="er entityLabel"></text><rect height="21" width="67.796875" y="86.5" x="0" class="er attributeBoxEven"></rect><text style="dominant-baseline: middle; font-size: 10.2px;" transform="translate(5,97)" y="0" x="0" id="text-entity-dbotblProducts-e8b22c94-a034-5c33-93e9-00b5e789cfba-attr-4-type" class="er entityLabel">varchar(50)</text><rect height="21" width="72.3359375" y="86.5" x="67.796875" class="er attributeBoxEven"></rect><text style="dominant-baseline: middle; font-size: 10.2px;" transform="translate(72.796875,97)" y="0" x="0" id="text-entity-dbotblProducts-e8b22c94-a034-5c33-93e9-00b5e789cfba-attr-4-name" class="er entityLabel">Brand</text><rect height="21" width="23.800193786621094" y="86.5" x="140.1328125" class="er attributeBoxEven"></rect><text style="dominant-baseline: middle; font-size: 10.2px;" transform="translate(145.1328125,97)" y="0" x="0" id="text-entity-dbotblProducts-e8b22c94-a034-5c33-93e9-00b5e789cfba-attr-4-comment" class="er entityLabel"></text><rect height="21" width="67.796875" y="107.5" x="0" class="er attributeBoxOdd"></rect><text style="dominant-baseline: middle; font-size: 10.2px;" transform="translate(5,118)" y="0" x="0" id="text-entity-dbotblProducts-e8b22c94-a034-5c33-93e9-00b5e789cfba-attr-5-type" class="er entityLabel">varchar(50)</text><rect height="21" width="72.3359375" y="107.5" x="67.796875" class="er attributeBoxOdd"></rect><text style="dominant-baseline: middle; font-size: 10.2px;" transform="translate(72.796875,118)" y="0" x="0" id="text-entity-dbotblProducts-e8b22c94-a034-5c33-93e9-00b5e789cfba-attr-5-name" class="er entityLabel">Model</text><rect height="21" width="23.800193786621094" y="107.5" x="140.1328125" class="er attributeBoxOdd"></rect><text style="dominant-baseline: middle; font-size: 10.2px;" transform="translate(145.1328125,118)" y="0" x="0" id="text-entity-dbotblProducts-e8b22c94-a034-5c33-93e9-00b5e789cfba-attr-5-comment" class="er entityLabel"></text><rect height="21" width="67.796875" y="128.5" x="0" class="er attributeBoxEven"></rect><text style="dominant-baseline: middle; font-size: 10.2px;" transform="translate(5,139)" y="0" x="0" id="text-entity-dbotblProducts-e8b22c94-a034-5c33-93e9-00b5e789cfba-attr-6-type" class="er entityLabel">int</text><rect height="21" width="72.3359375" y="128.5" x="67.796875" class="er attributeBoxEven"></rect><text style="dominant-baseline: middle; font-size: 10.2px;" transform="translate(72.796875,139)" y="0" x="0" id="text-entity-dbotblProducts-e8b22c94-a034-5c33-93e9-00b5e789cfba-attr-6-name" class="er entityLabel">CurrentStock</text><rect height="21" width="23.800193786621094" y="128.5" x="140.1328125" class="er attributeBoxEven"></rect><text style="dominant-baseline: middle; font-size: 10.2px;" transform="translate(145.1328125,139)" y="0" x="0" id="text-entity-dbotblProducts-e8b22c94-a034-5c33-93e9-00b5e789cfba-attr-6-comment" class="er entityLabel"></text></g><g transform="translate(283.93299865722656,248.5 )" id="entity-dbotblPurchaseOrders-207091d8-a55c-5b02-8bf0-9ab894ba13d0"><rect height="149.5" width="196.8080062866211" y="0" x="0" class="er entityBox"></rect><text style="dominant-baseline: middle; text-anchor: middle; font-size: 12px;" transform="translate(98.40400314331055,11.75)" y="0" x="0" id="text-entity-dbotblPurchaseOrders-207091d8-a55c-5b02-8bf0-9ab894ba13d0" class="er entityLabel">dbo.tblPurchaseOrders</text><rect height="21" width="62.1328125" y="23.5" x="0" class="er attributeBoxOdd"></rect><text style="dominant-baseline: middle; font-size: 10.2px;" transform="translate(5,34)" y="0" x="0" id="text-entity-dbotblPurchaseOrders-207091d8-a55c-5b02-8bf0-9ab894ba13d0-attr-1-type" class="er entityLabel">int</text><rect height="21" width="110.875" y="23.5" x="62.1328125" class="er attributeBoxOdd"></rect><text style="dominant-baseline: middle; font-size: 10.2px;" transform="translate(67.1328125,34)" y="0" x="0" id="text-entity-dbotblPurchaseOrders-207091d8-a55c-5b02-8bf0-9ab894ba13d0-attr-1-name" class="er entityLabel">PurchaseOrderID</text><rect height="21" width="23.800193786621094" y="23.5" x="173.0078125" class="er attributeBoxOdd"></rect><text style="dominant-baseline: middle; font-size: 10.2px;" transform="translate(178.0078125,34)" y="0" x="0" id="text-entity-dbotblPurchaseOrders-207091d8-a55c-5b02-8bf0-9ab894ba13d0-attr-1-comment" class="er entityLabel">PK</text><rect height="21" width="62.1328125" y="44.5" x="0" class="er attributeBoxEven"></rect><text style="dominant-baseline: middle; font-size: 10.2px;" transform="translate(5,55)" y="0" x="0" id="text-entity-dbotblPurchaseOrders-207091d8-a55c-5b02-8bf0-9ab894ba13d0-attr-2-type" class="er entityLabel">int</text><rect height="21" width="110.875" y="44.5" x="62.1328125" class="er attributeBoxEven"></rect><text style="dominant-baseline: middle; font-size: 10.2px;" transform="translate(67.1328125,55)" y="0" x="0" id="text-entity-dbotblPurchaseOrders-207091d8-a55c-5b02-8bf0-9ab894ba13d0-attr-2-name" class="er entityLabel">SupplierID</text><rect height="21" width="23.800193786621094" y="44.5" x="173.0078125" class="er attributeBoxEven"></rect><text style="dominant-baseline: middle; font-size: 10.2px;" transform="translate(178.0078125,55)" y="0" x="0" id="text-entity-dbotblPurchaseOrders-207091d8-a55c-5b02-8bf0-9ab894ba13d0-attr-2-comment" class="er entityLabel">FK</text><rect height="21" width="62.1328125" y="65.5" x="0" class="er attributeBoxOdd"></rect><text style="dominant-baseline: middle; font-size: 10.2px;" transform="translate(5,76)" y="0" x="0" id="text-entity-dbotblPurchaseOrders-207091d8-a55c-5b02-8bf0-9ab894ba13d0-attr-3-type" class="er entityLabel">int</text><rect height="21" width="110.875" y="65.5" x="62.1328125" class="er attributeBoxOdd"></rect><text style="dominant-baseline: middle; font-size: 10.2px;" transform="translate(67.1328125,76)" y="0" x="0" id="text-entity-dbotblPurchaseOrders-207091d8-a55c-5b02-8bf0-9ab894ba13d0-attr-3-name" class="er entityLabel">EmployeeID</text><rect height="21" width="23.800193786621094" y="65.5" x="173.0078125" class="er attributeBoxOdd"></rect><text style="dominant-baseline: middle; font-size: 10.2px;" transform="translate(178.0078125,76)" y="0" x="0" id="text-entity-dbotblPurchaseOrders-207091d8-a55c-5b02-8bf0-9ab894ba13d0-attr-3-comment" class="er entityLabel">FK</text><rect height="21" width="62.1328125" y="86.5" x="0" class="er attributeBoxEven"></rect><text style="dominant-baseline: middle; font-size: 10.2px;" transform="translate(5,97)" y="0" x="0" id="text-entity-dbotblPurchaseOrders-207091d8-a55c-5b02-8bf0-9ab894ba13d0-attr-4-type" class="er entityLabel">datetime</text><rect height="21" width="110.875" y="86.5" x="62.1328125" class="er attributeBoxEven"></rect><text style="dominant-baseline: middle; font-size: 10.2px;" transform="translate(67.1328125,97)" y="0" x="0" id="text-entity-dbotblPurchaseOrders-207091d8-a55c-5b02-8bf0-9ab894ba13d0-attr-4-name" class="er entityLabel">OrderDate</text><rect height="21" width="23.800193786621094" y="86.5" x="173.0078125" class="er attributeBoxEven"></rect><text style="dominant-baseline: middle; font-size: 10.2px;" transform="translate(178.0078125,97)" y="0" x="0" id="text-entity-dbotblPurchaseOrders-207091d8-a55c-5b02-8bf0-9ab894ba13d0-attr-4-comment" class="er entityLabel"></text><rect height="21" width="62.1328125" y="107.5" x="0" class="er attributeBoxOdd"></rect><text style="dominant-baseline: middle; font-size: 10.2px;" transform="translate(5,118)" y="0" x="0" id="text-entity-dbotblPurchaseOrders-207091d8-a55c-5b02-8bf0-9ab894ba13d0-attr-5-type" class="er entityLabel">datetime</text><rect height="21" width="110.875" y="107.5" x="62.1328125" class="er attributeBoxOdd"></rect><text style="dominant-baseline: middle; font-size: 10.2px;" transform="translate(67.1328125,118)" y="0" x="0" id="text-entity-dbotblPurchaseOrders-207091d8-a55c-5b02-8bf0-9ab894ba13d0-attr-5-name" class="er entityLabel">ExpectedDeliveryDate</text><rect height="21" width="23.800193786621094" y="107.5" x="173.0078125" class="er attributeBoxOdd"></rect><text style="dominant-baseline: middle; font-size: 10.2px;" transform="translate(178.0078125,118)" y="0" x="0" id="text-entity-dbotblPurchaseOrders-207091d8-a55c-5b02-8bf0-9ab894ba13d0-attr-5-comment" class="er entityLabel"></text><rect height="21" width="62.1328125" y="128.5" x="0" class="er attributeBoxEven"></rect><text style="dominant-baseline: middle; font-size: 10.2px;" transform="translate(5,139)" y="0" x="0" id="text-entity-dbotblPurchaseOrders-207091d8-a55c-5b02-8bf0-9ab894ba13d0-attr-6-type" class="er entityLabel">varchar(20)</text><rect height="21" width="110.875" y="128.5" x="62.1328125" class="er attributeBoxEven"></rect><text style="dominant-baseline: middle; font-size: 10.2px;" transform="translate(67.1328125,139)" y="0" x="0" id="text-entity-dbotblPurchaseOrders-207091d8-a55c-5b02-8bf0-9ab894ba13d0-attr-6-name" class="er entityLabel">Status</text><rect height="21" width="23.800193786621094" y="128.5" x="173.0078125" class="er attributeBoxEven"></rect><text style="dominant-baseline: middle; font-size: 10.2px;" transform="translate(178.0078125,139)" y="0" x="0" id="text-entity-dbotblPurchaseOrders-207091d8-a55c-5b02-8bf0-9ab894ba13d0-attr-6-comment" class="er entityLabel"></text></g><g transform="translate(149.98603057861328,20 )" id="entity-dbotblPurchaseOrderDetails-d6c7a7bc-2c4f-50ac-aa5e-26a4a18e1504"><rect height="128.5" width="184.3314437866211" y="0" x="0" class="er entityBox"></rect><text style="dominant-baseline: middle; text-anchor: middle; font-size: 12px;" transform="translate(92.16572189331055,11.75)" y="0" x="0" id="text-entity-dbotblPurchaseOrderDetails-d6c7a7bc-2c4f-50ac-aa5e-26a4a18e1504" class="er entityLabel">dbo.tblPurchaseOrderDetails</text><rect height="21" width="45.1328125" y="23.5" x="0" class="er attributeBoxOdd"></rect><text style="dominant-baseline: middle; font-size: 10.2px;" transform="translate(5,34)" y="0" x="0" id="text-entity-dbotblPurchaseOrderDetails-d6c7a7bc-2c4f-50ac-aa5e-26a4a18e1504-attr-1-type" class="er entityLabel">int</text><rect height="21" width="115.3984375" y="23.5" x="45.1328125" class="er attributeBoxOdd"></rect><text style="dominant-baseline: middle; font-size: 10.2px;" transform="translate(50.1328125,34)" y="0" x="0" id="text-entity-dbotblPurchaseOrderDetails-d6c7a7bc-2c4f-50ac-aa5e-26a4a18e1504-attr-1-name" class="er entityLabel">PurchaseOrderDetailID</text><rect height="21" width="23.800193786621094" y="23.5" x="160.53125" class="er attributeBoxOdd"></rect><text style="dominant-baseline: middle; font-size: 10.2px;" transform="translate(165.53125,34)" y="0" x="0" id="text-entity-dbotblPurchaseOrderDetails-d6c7a7bc-2c4f-50ac-aa5e-26a4a18e1504-attr-1-comment" class="er entityLabel">PK</text><rect height="21" width="45.1328125" y="44.5" x="0" class="er attributeBoxEven"></rect><text style="dominant-baseline: middle; font-size: 10.2px;" transform="translate(5,55)" y="0" x="0" id="text-entity-dbotblPurchaseOrderDetails-d6c7a7bc-2c4f-50ac-aa5e-26a4a18e1504-attr-2-type" class="er entityLabel">int</text><rect height="21" width="115.3984375" y="44.5" x="45.1328125" class="er attributeBoxEven"></rect><text style="dominant-baseline: middle; font-size: 10.2px;" transform="translate(50.1328125,55)" y="0" x="0" id="text-entity-dbotblPurchaseOrderDetails-d6c7a7bc-2c4f-50ac-aa5e-26a4a18e1504-attr-2-name" class="er entityLabel">PurchaseOrderID</text><rect height="21" width="23.800193786621094" y="44.5" x="160.53125" class="er attributeBoxEven"></rect><text style="dominant-baseline: middle; font-size: 10.2px;" transform="translate(165.53125,55)" y="0" x="0" id="text-entity-dbotblPurchaseOrderDetails-d6c7a7bc-2c4f-50ac-aa5e-26a4a18e1504-attr-2-comment" class="er entityLabel">FK</text><rect height="21" width="45.1328125" y="65.5" x="0" class="er attributeBoxOdd"></rect><text style="dominant-baseline: middle; font-size: 10.2px;" transform="translate(5,76)" y="0" x="0" id="text-entity-dbotblPurchaseOrderDetails-d6c7a7bc-2c4f-50ac-aa5e-26a4a18e1504-attr-3-type" class="er entityLabel">int</text><rect height="21" width="115.3984375" y="65.5" x="45.1328125" class="er attributeBoxOdd"></rect><text style="dominant-baseline: middle; font-size: 10.2px;" transform="translate(50.1328125,76)" y="0" x="0" id="text-entity-dbotblPurchaseOrderDetails-d6c7a7bc-2c4f-50ac-aa5e-26a4a18e1504-attr-3-name" class="er entityLabel">ProductID</text><rect height="21" width="23.800193786621094" y="65.5" x="160.53125" class="er attributeBoxOdd"></rect><text style="dominant-baseline: middle; font-size: 10.2px;" transform="translate(165.53125,76)" y="0" x="0" id="text-entity-dbotblPurchaseOrderDetails-d6c7a7bc-2c4f-50ac-aa5e-26a4a18e1504-attr-3-comment" class="er entityLabel">FK</text><rect height="21" width="45.1328125" y="86.5" x="0" class="er attributeBoxEven"></rect><text style="dominant-baseline: middle; font-size: 10.2px;" transform="translate(5,97)" y="0" x="0" id="text-entity-dbotblPurchaseOrderDetails-d6c7a7bc-2c4f-50ac-aa5e-26a4a18e1504-attr-4-type" class="er entityLabel">int</text><rect height="21" width="115.3984375" y="86.5" x="45.1328125" class="er attributeBoxEven"></rect><text style="dominant-baseline: middle; font-size: 10.2px;" transform="translate(50.1328125,97)" y="0" x="0" id="text-entity-dbotblPurchaseOrderDetails-d6c7a7bc-2c4f-50ac-aa5e-26a4a18e1504-attr-4-name" class="er entityLabel">Quantity</text><rect height="21" width="23.800193786621094" y="86.5" x="160.53125" class="er attributeBoxEven"></rect><text style="dominant-baseline: middle; font-size: 10.2px;" transform="translate(165.53125,97)" y="0" x="0" id="text-entity-dbotblPurchaseOrderDetails-d6c7a7bc-2c4f-50ac-aa5e-26a4a18e1504-attr-4-comment" class="er entityLabel"></text><rect height="21" width="45.1328125" y="107.5" x="0" class="er attributeBoxOdd"></rect><text style="dominant-baseline: middle; font-size: 10.2px;" transform="translate(5,118)" y="0" x="0" id="text-entity-dbotblPurchaseOrderDetails-d6c7a7bc-2c4f-50ac-aa5e-26a4a18e1504-attr-5-type" class="er entityLabel">decimal</text><rect height="21" width="115.3984375" y="107.5" x="45.1328125" class="er attributeBoxOdd"></rect><text style="dominant-baseline: middle; font-size: 10.2px;" transform="translate(50.1328125,118)" y="0" x="0" id="text-entity-dbotblPurchaseOrderDetails-d6c7a7bc-2c4f-50ac-aa5e-26a4a18e1504-attr-5-name" class="er entityLabel">CostPerUnit</text><rect height="21" width="23.800193786621094" y="107.5" x="160.53125" class="er attributeBoxOdd"></rect><text style="dominant-baseline: middle; font-size: 10.2px;" transform="translate(165.53125,118)" y="0" x="0" id="text-entity-dbotblPurchaseOrderDetails-d6c7a7bc-2c4f-50ac-aa5e-26a4a18e1504-attr-5-comment" class="er entityLabel"></text></g><rect height="13.5" width="56.03125" y="434.69818115234375" x="236.7235107421875" class="er relationshipLabelBox"></rect><text style="text-anchor: middle; dominant-baseline: middle; font-size: 12px;" y="441.44818115234375" x="264.7391357421875" id="rel1" class="er relationshipLabel">SupplierID</text><rect height="13.5" width="65.3671875" y="439.4181213378906" x="469.2807312011719" class="er relationshipLabelBox"></rect><text style="text-anchor: middle; dominant-baseline: middle; font-size: 12px;" y="446.1681213378906" x="501.9643249511719" id="rel2" class="er relationshipLabel">EmployeeID</text><rect height="13.5" width="93.375" y="183.5896453857422" x="319.6613464355469" class="er relationshipLabelBox"></rect><text style="text-anchor: middle; dominant-baseline: middle; font-size: 12px;" y="190.3396453857422" x="366.3488464355469" id="rel3" class="er relationshipLabel">PurchaseOrderID</text><rect height="13.5" width="53.359375" y="183.58978271484375" x="91.27539825439453" class="er relationshipLabelBox"></rect><text style="text-anchor: middle; dominant-baseline: middle; font-size: 12px;" y="190.33978271484375" x="117.95508575439453" id="rel4" class="er relationshipLabel">ProductID</text></svg>